<?xml version="1.0" encoding="UTF-8"?>
<svg enable-background="new 13 10 274 79" version="1.1" viewBox="13 10 274 79" xml:space="preserve" xmlns="http://www.w3.org/2000/svg">
<style type="text/css">
	.st0{fill:#111111;}
	.st1{fill-rule:evenodd;clip-rule:evenodd;fill:#333333;}
</style>
		<path class="st0" d="m88.9 54.6c0.4 0 1.8 0.1 2.6 0.1 0.3 0 0.5-0.1 0.5-0.3 0-0.1-0.1-0.2-0.3-0.2h-0.3c-0.6 0-1.3-0.3-1.3-1 0-0.6 0.2-1.4 0.5-2.3l2-6.1c0.1-0.2 0.2-0.3 0.3-0.3h7.1c0.2 0 0.2 0.1 0.3 0.2l3.1 8.4c0.2 0.5 0 0.9-0.2 0.9-0.1 0-0.2 0.1-0.2 0.2 0 0.2 0.4 0.2 1 0.2 2.3 0.1 4.7 0.1 5.2 0.1 0.4 0 0.7-0.1 0.7-0.3s-0.1-0.2-0.3-0.2c-0.3 0-0.8 0-1.3-0.2-0.7-0.2-1.7-0.8-2.8-3.8-2-5.2-7.2-19.4-7.7-20.7-0.4-1.1-0.5-1.2-0.7-1.2s-0.3 0.2-0.7 1.3l-7.9 21.6c-0.6 1.7-1.3 3-2.8 3.2-0.3 0-0.7 0.1-1 0.1-0.2 0-0.3 0.1-0.3 0.2 0 0.2 0.2 0.3 0.6 0.3 1.7-0.1 3.5-0.2 3.9-0.2zm4.2-11.5l2.9-9.3c0.2-0.5 0.3-0.5 0.5 0l3.1 9.3c0 0.1 0 0.2-0.1 0.2h-6.3c-0.1 0.1-0.2 0-0.1-0.2zm21.2 9.1c-0.1 1-0.3 1.8-1 1.9-0.3 0.1-0.7 0.1-1 0.1-0.2 0-0.3 0.1-0.3 0.2 0 0.2 0.2 0.3 0.5 0.3 0.5 0 1.3-0.1 1.9-0.1h1.3c0.2 0 1.3 0.1 2.7 0.2s3.2 0.2 4.6 0.2c5.6 0 8.6-2.4 10-3.9 1.9-2 3.6-5.4 3.6-9.7 0-4.1-1.6-6.9-3.2-8.7-3.9-4.2-10-3.9-13.3-3.9-2 0-4.1 0.1-4.5 0.1-0.2 0-2.2-0.1-3.7-0.1-0.4 0-0.5 0.1-0.5 0.3 0 0.1 0.1 0.2 0.3 0.2 0.3 0 0.9 0 1.1 0.1 1.1 0.2 1.4 0.8 1.4 2 0.1 1.1 0.1 2.1 0.1 7.4v6c0.1 3.3 0.1 6 0 7.4zm2.9-14v-7.3c0-0.4 0.1-0.5 0.4-0.7 0.3-0.1 1.5-0.2 2.2-0.2 3.9 0 7.7 0.5 10.8 3.9 1.4 1.5 3.2 4.3 3.2 8.6 0 3.2-0.9 6.5-2.6 8.2-2 2-4.8 3.2-7.9 3.2-3.9 0-5.2-0.7-5.6-1.4-0.3-0.4-0.3-1.8-0.4-2.6 0-0.7-0.1-3.8-0.1-7.4v-4.3zm40.1 16.4c-0.3 0.1-0.9 0.2-1.3 0.2-0.2 0-0.3 0.1-0.3 0.2 0 0.2 0.3 0.2 0.9 0.2 1.3 0 2.7-0.1 3.1-0.1s2.3 0.1 3.9 0.1c0.5 0 0.9 0 0.9-0.2 0-0.1-0.1-0.2-0.3-0.2s-0.8 0-1.3-0.1c-1.2-0.3-1.7-0.7-2.4-2.6l-8.1-21c-0.6-1.6-0.8-2.1-1.2-2.1-0.3 0-0.5 0.5-1.4 2.6-0.8 1.7-2.2 5.4-4.3 10.4-1.7 4.2-3.3 8.3-3.7 9.3-0.9 2.3-1.4 2.9-1.8 3.2-0.6 0.4-1.4 0.4-1.6 0.4-0.3 0-0.4 0.1-0.4 0.2 0 0.2 0.2 0.2 0.6 0.2 1 0 2.4-0.1 2.6-0.1 0.4 0 1.9 0.1 3.2 0.1 0.5 0 0.7-0.1 0.7-0.3s-0.2-0.2-0.4-0.2c-0.4 0-0.9 0-1.3-0.1-0.3-0.2-0.4-0.5-0.4-0.8s0.1-0.8 0.3-1.3c0.7-2.5 5.2-14.4 7.1-19l6.4 17.6c0.5 1.3 0.9 2.4 0.9 2.8 0 0.1-0.1 0.4-0.4 0.6zm33.7-0.4c0 0.2 0.2 0.3 0.9 0.3 1.2 0.1 4.8 0.2 5.5 0.2 0.4 0 0.7-0.1 0.7-0.3 0-0.1-0.1-0.2-0.3-0.2-0.3 0-1.2 0-2.1-0.3-1.4-0.5-1.7-2.4-1.8-3.6l-2.2-21.1c-0.1-0.7-0.2-0.9-0.4-0.9s-0.4 0.2-0.5 0.5l-9.7 21.6-10.1-21.6c-0.2-0.4-0.3-0.5-0.5-0.5s-0.3 0.2-0.4 0.6l-2.4 22.4c-0.1 1.3-0.2 2.6-1.3 2.8-0.5 0.1-0.7 0.1-1 0.1-0.2 0-0.3 0.1-0.3 0.2 0 0.2 0.2 0.3 0.6 0.3 0.9 0 2.5-0.1 2.8-0.1s1.9 0.1 3.1 0.1c0.4 0 0.6-0.1 0.6-0.3 0-0.1-0.1-0.2-0.3-0.2s-0.7 0-1.3-0.2c-0.5-0.1-0.9-0.5-0.9-1.1v-1.8l1.3-15.9h0.1c0.4 0.9 4.1 9.2 4.4 9.8 0.2 0.3 3 6.3 3.9 8 0.6 1.2 0.8 1.6 1 1.6 0.3 0 0.4-0.3 1.1-1.8l8.1-17.8h0.1l1.6 17.7c0.1 0.6 0 1.2-0.1 1.2-0.2 0.1-0.2 0.1-0.2 0.3zm11.7-8.4c0 2.2 1.7 5.6 6.2 5.6 3.8 0 5.8-2.1 6.3-2.7 2.8 2.2 3.4 2.4 5.3 2.4h2.5c0.2 0 0.4-0.1 0.4-0.2 0-0.2-0.1-0.2-0.4-0.2-0.9 0-2.2-0.5-3-1-0.7-0.4-1.8-1.1-3.5-2.5 1.1-1.4 2.5-3.9 2.5-6 0-0.3-0.1-0.5-0.5-0.5-1.4-0.2-2.4-0.2-3-0.2-0.2 0-0.4 0.1-0.4 0.2s0.2 0.2 0.3 0.2c0.4 0 0.9 0.1 1.2 0.4 0.4 0.4 0.5 0.9 0.5 1.2 0 1.5-0.6 3.2-1.3 4.2-0.8-0.7-3.9-3.6-4.8-4.5-2.6-2.9-4-4.5-4-6.5 0-2.4 1.7-3.3 3.2-3.3 1.1 0 2 0.5 2.5 1.1 0.6 0.7 0.8 1.5 0.8 2.1 0 0.4 0 0.5 0.2 0.5 0.1 0 0.2-0.1 0.3-0.4 0.1-0.4 0.2-2.1 0.2-2.9 0-0.3 0-0.5-0.3-0.6-0.7-0.4-1.8-0.6-3.1-0.6-3.4 0-5.5 2.6-5.5 4.6 0 1.1 0.3 2.2 1.2 3.5-1.9 1.1-3.8 3.1-3.8 6.1zm4.3-5.5c0.7 1 2.3 2.8 3 3.5s3.2 3.1 4.6 4.3c-0.9 0.9-2.4 1.9-4.8 1.9-2.8 0-5.1-2.3-5.1-5.4 0-2 1-3.4 2.3-4.3zm24.3-10.3c0.4 0 4 0 4.5 0.1 1.8 0.2 2.1 0.6 2.3 1.1 0.2 0.4 0.2 1 0.2 1.2 0 0.3 0.1 0.4 0.3 0.4 0.1 0 0.2-0.2 0.2-0.4 0.1-0.4 0.1-1.9 0.2-2.2 0.1-0.9 0.3-1.3 0.3-1.6 0-0.2 0-0.3-0.1-0.3-0.2 0-0.3 0.1-0.5 0.2-0.3 0.1-0.8 0.1-1.4 0.2h-7.6l-1.4-0.1h-2.4c-0.4 0-0.5 0.1-0.5 0.3 0 0.1 0.1 0.2 0.3 0.2 0.3 0 0.9 0 1.1 0.1 1.1 0.2 1.4 0.8 1.4 1.9 0.1 1.1 0.1 2 0.1 7.2v5.9c0 3.2 0 5.9-0.2 7.3-0.1 1-0.3 1.7-1 1.8-0.3 0.1-0.7 0.1-1 0.1-0.2 0-0.3 0.1-0.3 0.2 0 0.2 0.2 0.3 0.5 0.3 0.5 0 1.3-0.1 1.9-0.1h1.3c0.5 0 1.3 0 2.6 0.1 1.3 0 3.1 0.1 5.6 0.1 1.3 0 1.6 0 1.8-0.9 0.2-0.7 0.4-3 0.4-3.2s0-0.5-0.2-0.5-0.2 0.1-0.3 0.5c-0.2 1.4-0.6 2-1.5 2.4s-2.3 0.4-3.2 0.4c-3.2 0-3.7-0.4-3.8-2.7v-5.7-2.9c0-0.1 0.1-0.2 0.2-0.2 0.6 0 3.8 0.1 4.7 0.2 1.3 0.1 1.6 0.7 1.7 1.2 0.1 0.4 0.1 0.8 0.1 1.1 0 0.2 0.1 0.3 0.2 0.3 0.2 0 0.2-0.4 0.2-0.6s0.1-1.5 0.1-2.1c0.1-1.1 0.3-1.7 0.3-1.9s-0.1-0.3-0.2-0.3-0.3 0.2-0.5 0.4c-0.3 0.3-0.8 0.4-1.6 0.5s-4.8 0.1-5.2 0.1c-0.2 0-0.2-0.1-0.2-0.3v-9.2c0.4-0.5 0.4-0.6 0.6-0.6zm18.3-0.7c0.3-0.1 0.9-0.2 1.3-0.2 0.2 0 0.3-0.1 0.3-0.2 0-0.2-0.3-0.2-0.9-0.2-1.3 0-2.7 0.1-3.1 0.1s-2.3-0.1-3.9-0.1c-0.5 0-0.9 0-0.9 0.2 0 0.1 0.1 0.2 0.3 0.2s0.8 0 1.3 0.1c1.2 0.3 1.7 0.7 2.4 2.6l8.1 20.5c0.6 1.6 0.8 2.1 1.2 2.1 0.3 0 0.5-0.5 1.4-2.5 0.8-1.6 2.2-5.3 4.3-10.1 1.7-4.1 3.3-8.1 3.7-9.1 0.9-2.3 1.4-2.8 1.8-3.1 0.6-0.4 1.4-0.4 1.6-0.4 0.3 0 0.4-0.1 0.4-0.2 0-0.2-0.2-0.2-0.6-0.2-1 0-2.4 0.1-2.6 0.1-0.4 0-1.9-0.1-3.2-0.1-0.5 0-0.7 0.1-0.7 0.3s0.2 0.2 0.4 0.2c0.4 0 0.9 0 1.3 0.1 0.3 0.2 0.4 0.5 0.4 0.8s-0.1 0.8-0.3 1.3c-0.7 2.4-5.1 14.1-7.1 18.6l-6.3-17.2c-0.5-1.3-0.9-2.3-0.9-2.8-0.1-0.3 0-0.6 0.3-0.8zm35.7 20.2c-0.2 0-0.2 0.1-0.3 0.5-0.2 1.4-0.6 2-1.5 2.4s-2.3 0.4-3.2 0.4c-3.2 0-3.7-0.4-3.8-2.7v-5.7-2.9c0-0.1 0.1-0.2 0.2-0.2 0.6 0 3.8 0.1 4.7 0.2 1.3 0.1 1.6 0.7 1.7 1.2 0.1 0.4 0.1 0.8 0.1 1.1 0 0.2 0.1 0.3 0.2 0.3 0.2 0 0.2-0.4 0.2-0.6s0.1-1.5 0.1-2.1c0.1-1.1 0.3-1.7 0.3-1.9s-0.1-0.3-0.2-0.3-0.3 0.2-0.5 0.4c-0.3 0.3-0.8 0.4-1.6 0.5s-4.8 0.1-5.2 0.1c-0.2 0-0.2-0.1-0.2-0.3v-9.2c0-0.2 0.1-0.3 0.2-0.3 0.4 0 4 0 4.5 0.1 1.8 0.2 2.1 0.6 2.3 1.1 0.2 0.4 0.2 1 0.2 1.2 0 0.3 0.1 0.4 0.3 0.4 0.1 0 0.2-0.2 0.2-0.4 0.1-0.4 0.1-1.9 0.2-2.2 0.1-0.9 0.3-1.3 0.3-1.6 0-0.2 0-0.3-0.1-0.3-0.2 0-0.3 0.1-0.5 0.2-0.3 0.1-0.8 0.1-1.4 0.2h-7.6l-1.4-0.1h-2.4c-0.4 0-0.5 0.1-0.5 0.3 0 0.1 0.1 0.2 0.3 0.2 0.3 0 0.9 0 1.1 0.1 1.1 0.2 1.4 0.8 1.4 1.9 0.1 1.1 0.1 2 0.1 7.2v5.9c0 3.2 0 5.9-0.2 7.3-0.1 1-0.3 1.7-1 1.8-0.3 0.1-0.7 0.1-1 0.1-0.2 0-0.3 0.1-0.3 0.2 0 0.2 0.2 0.3 0.5 0.3 0.5 0 1.3-0.1 1.9-0.1h1.3c0.5 0 1.3 0 2.6 0.1 1.3 0 3.1 0.1 5.6 0.1 1.3 0 1.6 0 1.8-0.9 0.2-0.7 0.4-3 0.4-3.2 0.4-0.5 0.4-0.8 0.2-0.8zm-198.8 24.2h1.3c0.2 0 0.3 0 0.3-0.1l-0.1-0.1c-0.1 0-0.3 0-0.5-0.1-0.2 0-0.3-0.2-0.3-0.4v-0.7l0.5-6.1h0.1c0.2 0.6 1.4 2.8 1.8 3.7 0.4 0.7 1.3 2.5 1.7 3.1 0.3 0.5 0.4 0.6 0.5 0.6s0.2-0.1 0.5-0.7l3.4-6.9 0.7 6.9c0 0.3 0 0.5-0.1 0.5s-0.1 0.1-0.1 0.1c0 0.1 0.1 0.1 0.4 0.1 0.5 0 2.1 0.1 2.4 0.1 0.2 0 0.3 0 0.3-0.1s0-0.1-0.1-0.1-0.5 0-0.9-0.1c-0.6-0.2-0.7-0.9-0.7-1.4l-1-8.3c0-0.3-0.1-0.4-0.2-0.4s-0.2 0.1-0.2 0.2l-4.1 8.4-4.3-8.4c-0.1-0.2-0.2-0.2-0.3-0.2s-0.1 0.1-0.2 0.2l-1 8.9c-0.1 0.5-0.1 1-0.5 1.1h-0.4c-0.1 0-0.1 0-0.1 0.1s0.1 0.1 0.2 0.1h1zm18.3-9.7h2c0.8 0.1 0.9 0.2 1 0.4s0.1 0.4 0.1 0.5 0 0.2 0.1 0.2 0.1-0.1 0.1-0.1c0-0.2 0.1-0.8 0.1-0.9 0-0.4 0.1-0.5 0.1-0.6s0-0.1-0.1-0.1-0.1 0-0.2 0.1c-0.1 0-0.4 0.1-0.6 0.1h-3.4-1.6c-0.2 0-0.2 0-0.2 0.1l0.1 0.1h0.5c0.5 0.1 0.5 0.3 0.6 0.8v2.9 2.4c0 1.3 0 2.4-0.1 2.9-0.1 0.4-0.1 0.7-0.4 0.7-0.1 0-0.3 0.1-0.4 0.1s-0.1 0.1-0.1 0.1c0 0.1 0.1 0.1 0.2 0.1h0.8 0.6 1.2 2.5c0.5 0 0.7 0 0.8-0.4 0.1-0.3 0.2-1.2 0.2-1.3s0-0.2-0.1-0.2-0.1 0-0.1 0.2c-0.1 0.5-0.3 0.8-0.6 0.9-0.4 0.1-1 0.1-1.4 0.1-1.4 0-1.7-0.2-1.7-1.1v-2.3-1.1s0-0.1 0.1-0.1c0.2 0 1.8 0 2.1 0.1 0.5 0.1 0.7 0.2 0.7 0.4 0.1 0.2 0.1 0.3 0.1 0.4s0 0.1 0.1 0.1 0.1-0.1 0.1-0.3c0-0.1 0-0.6 0.1-0.9 0-0.4 0.1-0.7 0.1-0.8s0-0.1-0.1-0.1l-0.2 0.2c-0.1 0.1-0.4 0.2-0.7 0.2h-2.4c-0.1 0-0.1 0-0.1-0.1v-3.7c0 0.1 0 0 0.1 0zm9.1 8.7c-0.1 0.4-0.1 0.7-0.4 0.7-0.1 0-0.3 0.1-0.4 0.1s-0.1 0.1-0.1 0.1c0 0.1 0.1 0.1 0.2 0.1h0.9 0.6c0.1 0 0.5 0 1.2 0.1 0.6 0 1.4 0.1 2 0.1 2.4 0 3.7-0.9 4.3-1.6 0.8-0.8 1.5-2.1 1.5-3.8 0-1.6-0.7-2.7-1.4-3.5-1.7-1.7-4.3-1.5-5.7-1.5h-1.9-1.6c-0.2 0-0.2 0-0.2 0.1l0.1 0.1h0.5c0.5 0.1 0.5 0.3 0.6 0.8v2.9 2.4c-0.1 1.3-0.1 2.4-0.2 2.9zm1.4-8.4c0-0.2 0-0.2 0.2-0.3 0.1 0 0.6-0.1 0.9-0.1 1.7 0 3.2 0.2 4.6 1.5 0.6 0.6 1.3 1.7 1.3 3.4 0 1.2-0.4 2.5-1.1 3.2-0.9 0.8-2 1.2-3.3 1.2-1.7 0-2.2-0.3-2.3-0.5-0.1-0.1-0.1-0.6-0.2-1v-3-4.4zm14.6 0.2c0-0.5 0.1-0.7 0.5-0.8h0.4l0.1-0.1c0-0.1-0.1-0.1-0.2-0.1h-1.4-1.4c-0.2 0-0.2 0-0.2 0.1 0 0 0 0.1 0.1 0.1h0.4c0.3 0.1 0.4 0.3 0.5 0.7v2.9 2.4c0 1.3 0 2.4-0.1 2.9 0 0.4-0.1 0.7-0.4 0.7-0.1 0-0.3 0.1-0.4 0.1s-0.1 0.1-0.1 0.1c0 0.1 0.1 0.1 0.2 0.1h1.4 1.8c0.2 0 0.2 0 0.2-0.1 0 0 0-0.1-0.1-0.1s-0.4 0-0.6-0.1c-0.4-0.1-0.5-0.3-0.5-0.7-0.1-0.6-0.1-1.6-0.1-2.9v-2.4c-0.1-2-0.1-2.4-0.1-2.8zm10.7-0.7c1.3 0 2.3 0.3 2.8 0.8 0.4 0.3 0.6 0.8 0.6 1.4 0 0.2 0 0.3 0.1 0.3s0.1-0.1 0.2-0.3v-1.4c0-0.5 0.1-0.7 0.1-0.8s0-0.1-0.2-0.1c-0.5 0-0.9-0.1-1.4-0.2-0.7-0.1-1.5-0.2-2.1-0.2-2.2 0-3.5 0.6-4.3 1.5-1.3 1.2-1.6 2.8-1.6 3.7 0 1.3 0.3 2.8 1.7 4 1.1 1 2.5 1.5 4.7 1.5 0.9 0 2-0.1 2.6-0.3 0.2-0.1 0.3-0.1 0.4-0.4 0.1-0.5 0.3-1.6 0.3-1.7s-0.1-0.2-0.1-0.2c-0.1 0-0.1 0-0.1 0.2 0 0.3-0.2 0.8-0.5 1.1-0.6 0.6-1.3 0.6-2.3 0.6-3 0-5.1-2.3-5.1-4.9 0-1.4 0.2-2.6 1.3-3.5 0.2-0.6 1.1-1.1 2.9-1.1zm14.1 9.7c-0.1 0-0.1 0 0 0-0.1 0.2 0.1 0.2 0.4 0.2h2.2c0.2 0 0.3 0 0.3-0.1s-0.1-0.1-0.2-0.1-0.4 0-0.6-0.1c-0.3-0.1-0.7-0.3-1.2-1.5-0.9-2.1-3.1-7.7-3.4-8.2-0.1-0.3-0.2-0.5-0.3-0.5s-0.2 0.1-0.3 0.5l-3.3 8.5c-0.3 0.7-0.5 1.2-1.2 1.2h-0.4c-0.1 0-0.1 0-0.1 0.1s0.1 0.1 0.3 0.1h1.4 1.3c0.1 0 0.2 0 0.2-0.1s0-0.1-0.1-0.1h-0.1c-0.2 0-0.5-0.1-0.5-0.4 0-0.2 0.1-0.6 0.2-0.9l0.8-2.2c0-0.1 0.1-0.1 0.1-0.1h3.3c0.1 0 0.1 0 0.1 0.1l1.3 3.1c0 0.4-0.1 0.5-0.2 0.5zm-1.5-4.1h-2.9s-0.1 0 0-0.1l1.3-3.7c0.1-0.2 0.2-0.2 0.2 0l1.4 3.8c0.1-0.1 0.1 0 0 0zm9.4-4.9c0-0.5 0.1-0.7 0.5-0.8h0.5s0.1 0 0.1-0.1-0.1-0.1-0.2-0.1h-1.6-1.6c-0.2 0-0.2 0-0.2 0.1l0.1 0.1h0.5c0.5 0.1 0.5 0.3 0.6 0.8v2.9 2.4c0 1.3 0 2.4-0.1 2.9-0.1 0.4-0.1 0.7-0.4 0.7-0.1 0-0.3 0.1-0.4 0.1s-0.1 0.1-0.1 0.1c0 0.1 0.1 0.1 0.2 0.1h0.8 0.6 1.5 2.5c0.8 0 0.8 0 0.9-0.4s0.2-1.2 0.2-1.4c0-0.1 0-0.2-0.1-0.2s-0.1 0.1-0.1 0.2c0 0.3-0.2 0.6-0.3 0.8-0.3 0.4-1 0.4-1.7 0.4-1.1 0-1.7-0.1-1.9-0.3-0.3-0.2-0.3-1.1-0.3-3.1v-2.4c-0.1-2-0.1-2.4 0-2.8zm21.2 9c-0.1 0-0.1 0 0 0-0.1 0.2 0.1 0.2 0.4 0.2h2.2c0.2 0 0.3 0 0.3-0.1s-0.1-0.1-0.2-0.1-0.4 0-0.6-0.1c-0.3-0.1-0.7-0.3-1.2-1.5-0.9-2.1-3.1-7.7-3.4-8.2-0.1-0.3-0.2-0.5-0.3-0.5s-0.2 0.1-0.3 0.5l-3.3 8.5c-0.3 0.7-0.5 1.2-1.2 1.2h-0.4c-0.1 0-0.1 0-0.1 0.1s0.1 0.1 0.3 0.1h1.4 1.3c0.1 0 0.2 0 0.2-0.1s0-0.1-0.1-0.1h-0.1c-0.2 0-0.5-0.1-0.5-0.4 0-0.2 0.1-0.6 0.2-0.9l0.8-2.2c0-0.1 0.1-0.1 0.1-0.1h3.3c0.1 0 0.1 0 0.1 0.1l1.3 3.1c0 0.4-0.2 0.5-0.2 0.5zm-1.5-4.1h-2.9s-0.1 0 0-0.1l1.3-3.7c0.1-0.2 0.2-0.2 0.2 0l1.4 3.8c0.1-0.1 0.1 0 0 0zm9.4-5.4h2c0.8 0.1 0.9 0.2 1 0.4s0.1 0.4 0.1 0.5 0 0.2 0.1 0.2 0.1-0.1 0.1-0.1c0-0.2 0.1-0.8 0.1-0.9 0-0.4 0.1-0.5 0.1-0.6s0-0.1-0.1-0.1-0.1 0-0.2 0.1c-0.1 0-0.4 0.1-0.6 0.1h-3.4-1.6c-0.2 0-0.2 0-0.2 0.1l0.1 0.1h0.5c0.5 0.1 0.5 0.3 0.6 0.8v2.9 2.4c0 1.3 0 2.4-0.1 2.9-0.1 0.4-0.1 0.7-0.4 0.7-0.1 0-0.3 0.1-0.4 0.1s-0.1 0.1-0.1 0.1c0 0.1 0.1 0.1 0.2 0.1h0.8 0.6 1.2 2.5c0.5 0 0.7 0 0.8-0.4 0.1-0.3 0.2-1.2 0.2-1.3s0-0.2-0.1-0.2-0.1 0-0.1 0.2c-0.1 0.5-0.3 0.8-0.6 0.9-0.4 0.1-1 0.1-1.4 0.1-1.4 0-1.7-0.2-1.7-1.1v-2.3-1.1s0-0.1 0.1-0.1c0.2 0 1.8 0 2.1 0.1 0.5 0.1 0.7 0.2 0.7 0.4 0.1 0.2 0.1 0.3 0.1 0.4s0 0.1 0.1 0.1 0.1-0.1 0.1-0.3c0-0.1 0-0.6 0.1-0.9 0-0.4 0.1-0.7 0.1-0.8s0-0.1-0.1-0.1l-0.2 0.2c-0.1 0.1-0.4 0.2-0.7 0.2h-2.4c-0.1 0-0.1 0-0.1-0.1v-3.7c0 0.1 0 0 0.1 0zm10.4 9.4c-0.9 0-2-0.4-2.2-1.3v-0.5c0-0.1 0-0.2-0.1-0.2s-0.1 0.1-0.1 0.2c0 0.2-0.1 0.8-0.1 1.4 0 0.4 0 0.4 0.2 0.5 0.6 0.3 1.4 0.4 2.1 0.4 0.8 0 1.7-0.1 2.3-0.5 1-0.7 1.3-1.5 1.3-2.3 0-1.2-0.6-2.1-2.3-3.3l-0.4-0.3c-1.4-0.9-1.8-1.4-1.8-2.3 0-1 0.9-1.5 1.9-1.5 1.3 0 1.7 0.5 1.8 0.7 0.1 0.1 0.2 0.5 0.2 0.7 0 0.1 0 0.2 0.1 0.2s0.1-0.1 0.1-0.3c0-0.9 0.1-1.4 0.1-1.4 0-0.1 0-0.1-0.1-0.1s-0.2 0-0.5-0.1-0.9-0.2-1.5-0.2c-1.9 0-3.1 1-3.1 2.6 0 0.9 0.5 1.8 2 2.9l0.6 0.5c1.3 0.9 1.8 1.4 1.8 2.4-0.2 1-0.9 1.8-2.3 1.8zm13.8-9.3c1.4 0 1.7 0.3 1.7 0.8v0.1c0 0.2 0 0.2 0.1 0.2s0.1-0.1 0.1-0.2v-1.5c0-0.1 0-0.2-0.1-0.2s-0.2 0-0.4 0.1c-0.2 0-0.5 0.1-1 0.1h-5.3c-0.2 0-0.7 0-1.1-0.1-0.4 0-0.5-0.2-0.6-0.2 0 0-0.1 0.2-0.1 0.3s-0.3 1.3-0.3 1.5c0 0.1 0.1 0.1 0.1 0.1 0.1 0 0.1 0 0.1-0.1s0.1-0.2 0.2-0.4c0.2-0.3 0.5-0.4 1.4-0.4h2v5.7c0 1.3 0 2.4-0.1 2.9 0 0.4-0.1 0.7-0.4 0.7-0.1 0-0.3 0.1-0.4 0.1s-0.1 0-0.1 0.1 0.1 0.1 0.2 0.1h1.5 1.8c0.2 0 0.2 0 0.2-0.1 0 0 0-0.1-0.1-0.1s-0.5 0-0.6-0.1c-0.4-0.1-0.5-0.3-0.5-0.7-0.1-0.6-0.1-1.6-0.1-2.9v-5.7l1.8-0.1zm8 0.4c0-0.5 0.1-0.7 0.5-0.8h0.4l0.1-0.1c0-0.1-0.1-0.1-0.2-0.1h-1.4-1.6c-0.2 0-0.2 0-0.2 0.1l0.1 0.1h0.5c0.5 0.1 0.5 0.3 0.6 0.8v2.9 2.4c0 1.3 0 2.4-0.1 2.9-0.1 0.4-0.1 0.7-0.4 0.7-0.1 0-0.3 0.1-0.4 0.1s-0.1 0.1-0.1 0.1c0 0.1 0.1 0.1 0.2 0.1h1.4 1.8c0.2 0 0.2 0 0.2-0.1 0 0 0-0.1-0.1-0.1s-0.4 0-0.6-0.1c-0.4-0.1-0.5-0.3-0.5-0.7-0.1-0.6-0.1-1.6-0.1-2.9v-1.4c0-0.1 0-0.1 0.1-0.1h5.9s0.1 0 0.1 0.1v1.4c0 1.3 0 2.3-0.1 2.9 0 0.4-0.1 0.7-0.4 0.7-0.1 0-0.3 0.1-0.4 0.1s-0.1 0.1-0.1 0.1c0 0.1 0.1 0.1 0.2 0.1h1.4 1.8c0.2 0 0.2 0 0.2-0.1 0 0 0-0.1-0.1-0.1s-0.4 0-0.6-0.1c-0.4-0.1-0.5-0.3-0.5-0.7-0.1-0.6-0.1-1.6-0.1-2.9v-2.4-2.9c0-0.5 0.1-0.7 0.5-0.8h0.4c0.1 0 0.1-0.1 0.1-0.1 0-0.1-0.1-0.1-0.2-0.1h-1.4-1.6c-0.2 0-0.2 0-0.2 0.1 0 0 0 0.1 0.1 0.1h0.5c0.5 0.1 0.5 0.3 0.6 0.8v3 0.3c0 0.1 0 0.1-0.1 0.1h-6.1s-0.1 0-0.1-0.1v-0.3-3zm15.1-0.5h2c0.8 0.1 0.9 0.2 1 0.4s0.1 0.4 0.1 0.5 0 0.2 0.1 0.2 0.1-0.1 0.1-0.1c0-0.2 0.1-0.8 0.1-0.9 0-0.4 0.1-0.5 0.1-0.6s0-0.1-0.1-0.1-0.1 0-0.2 0.1c-0.1 0-0.4 0.1-0.6 0.1h-3.4-1.6c-0.2 0-0.2 0-0.2 0.1l0.1 0.1h0.5c0.5 0.1 0.5 0.3 0.6 0.8v2.9 2.4c0 1.3 0 2.4-0.1 2.9-0.1 0.4-0.1 0.7-0.4 0.7-0.1 0-0.3 0.1-0.4 0.1s-0.1 0.1-0.1 0.1c0 0.1 0.1 0.1 0.2 0.1h0.8 0.6 1.2 2.5c0.5 0 0.7 0 0.8-0.4 0.1-0.3 0.2-1.2 0.2-1.3s0-0.2-0.1-0.2-0.1 0-0.1 0.2c-0.1 0.5-0.3 0.8-0.6 0.9-0.4 0.1-1 0.1-1.4 0.1-1.4 0-1.7-0.2-1.7-1.1v-2.3-1.1s0-0.1 0.1-0.1c0.2 0 1.8 0 2.1 0.1 0.5 0.1 0.7 0.2 0.7 0.4 0.1 0.2 0.1 0.3 0.1 0.4s0 0.1 0.1 0.1 0.1-0.1 0.1-0.3c0-0.1 0-0.6 0.1-0.9 0-0.4 0.1-0.7 0.1-0.8s0-0.1-0.1-0.1l-0.2 0.2c-0.1 0.1-0.4 0.2-0.7 0.2h-2.4c-0.1 0-0.1 0-0.1-0.1v-3.7c0 0.1 0.1 0 0.1 0zm14.1 0.1c1.4 0 1.7 0.3 1.7 0.8v0.1c0 0.2 0 0.2 0.1 0.2s0.1-0.1 0.1-0.2v-1.5c0-0.1 0-0.2-0.1-0.2s-0.2 0-0.4 0.1c-0.2 0-0.5 0.1-1 0.1h-5.3c-0.2 0-0.7 0-1.1-0.1-0.4 0-0.5-0.2-0.6-0.2 0 0-0.1 0.2-0.1 0.3s-0.3 1.3-0.3 1.5c0 0.1 0.1 0.1 0.1 0.1 0.1 0 0.1 0 0.1-0.1s0.1-0.2 0.2-0.4c0.2-0.3 0.5-0.4 1.4-0.4h2v5.7c0 1.3 0 2.4-0.1 2.9 0 0.4-0.1 0.7-0.4 0.7-0.1 0-0.3 0.1-0.4 0.1s-0.1 0-0.1 0.1 0.1 0.1 0.2 0.1h1.5 1.8c0.2 0 0.2 0 0.2-0.1 0 0 0-0.1-0.1-0.1s-0.4 0-0.6-0.1c-0.4-0.1-0.5-0.3-0.5-0.7-0.1-0.6-0.1-1.6-0.1-2.9v-5.7l1.8-0.1zm8 0.4c0-0.5 0.1-0.7 0.5-0.8h0.4l0.1-0.1c0-0.1-0.1-0.1-0.2-0.1h-1.4-1.4c-0.2 0-0.2 0-0.2 0.1 0 0 0 0.1 0.1 0.1h0.4c0.3 0.1 0.4 0.3 0.4 0.7v2.9 2.4c0 1.3 0 2.4-0.1 2.9 0 0.4-0.1 0.7-0.4 0.7-0.1 0-0.3 0.1-0.4 0.1s-0.1 0.1-0.1 0.1c0 0.1 0.1 0.1 0.2 0.1h1.4 1.8c0.2 0 0.2 0 0.2-0.1 0 0 0-0.1-0.1-0.1s-0.4 0-0.6-0.1c-0.4-0.1-0.5-0.3-0.5-0.7-0.1-0.6-0.1-1.6-0.1-2.9v-2.4-2.8zm10.7-0.7c1.3 0 2.3 0.3 2.8 0.8 0.4 0.3 0.6 0.8 0.6 1.4 0 0.2 0 0.3 0.1 0.3s0.1-0.1 0.2-0.3v-1.4c0-0.5 0.1-0.7 0.1-0.8s0-0.1-0.2-0.1c-0.5 0-0.9-0.1-1.4-0.2-0.7-0.1-1.5-0.2-2.1-0.2-2.2 0-3.5 0.6-4.3 1.5-1.3 1.2-1.6 2.8-1.6 3.7 0 1.3 0.3 2.8 1.7 4 1.1 1 2.5 1.5 4.7 1.5 0.9 0 2-0.1 2.6-0.3 0.2-0.1 0.3-0.1 0.4-0.4 0.1-0.5 0.3-1.6 0.3-1.7s-0.1-0.2-0.1-0.2c-0.1 0-0.1 0-0.1 0.2 0 0.3-0.2 0.8-0.5 1.1-0.6 0.6-1.3 0.6-2.3 0.6-3 0-5.1-2.3-5.1-4.9 0-1.4 0.2-2.6 1.3-3.5 0.2-0.6 1.1-1.1 2.9-1.1zm10.1 9.6c-0.9 0-2-0.4-2.2-1.3v-0.5c0-0.1 0-0.2-0.1-0.2s-0.1 0.1-0.1 0.2c0 0.2-0.1 0.8-0.1 1.4 0 0.4 0 0.4 0.2 0.5 0.6 0.3 1.4 0.4 2.1 0.4 0.8 0 1.7-0.1 2.3-0.5 1-0.7 1.3-1.5 1.3-2.3 0-1.2-0.6-2.1-2.3-3.3l-0.4-0.3c-1.4-0.9-1.8-1.4-1.8-2.3 0-1 0.9-1.5 1.9-1.5 1.3 0 1.7 0.5 1.8 0.7 0.1 0.1 0.2 0.5 0.2 0.7 0 0.1 0 0.2 0.1 0.2s0.1-0.1 0.1-0.3c0-0.9 0.1-1.4 0.1-1.4 0-0.1 0-0.1-0.1-0.1s-0.2 0-0.5-0.1-0.9-0.2-1.5-0.2c-1.9 0-3.1 1-3.1 2.6 0 0.9 0.5 1.8 2 2.9l0.6 0.5c1.3 0.9 1.8 1.4 1.8 2.4-0.2 1-0.9 1.8-2.3 1.8zm-196.8-50.4v1h200.4v-1h-200.4zm0 36.6h200.4v-1h-200.4v1zm0 19.4h200.4v-1h-200.4v1z"/>
<path class="st1" d="m45.9 11h0.8c0.7 0 1.3 0.3 1.7 0.6 0.3 0.2 0.6 0.5 0.8 0.7l0.3 0.3c0 0.1 0 0.1 0.1 0.1 0 0 0.1 0 0.1 0.1s0 0.1 0.1 0.2c0 0 0.1 0 0.1 0.1 0 0 0.1 0.1 0.1 0.2 0.2 0.4 0.2 0.8 0.3 1.2v0.1 0.8c0 0.3-0.1 0.6-0.1 0.8v0.2l-0.1 0.1v0.1c-0.1 0.2-0.1 0.3-0.2 0.5v0.1l-0.1 0.1c0 0.1-0.1 0.1-0.1 0.2l-0.3 0.3c0 0.1-0.1 0.1-0.1 0.1l-0.2 0.2h-0.1c-0.1 0-0.1 0.1-0.1 0.1-0.1 0.1-0.2 0.1-0.3 0.1s-0.1 0.1-0.2 0.1-0.1 0.1-0.2 0.1v0.8 7.6 2.8 5.5 5.2 0.3c-0.8 0.1-1.7 0.2-2.7 0.2v-5.6-1.4-1.4-2.8-7-1.4-2.1-0.7c0-0.1-0.1-0.1-0.1-0.2h-0.1c-0.1-0.1-0.1-0.2-0.2-0.2h-0.1v-0.1s-0.1 0-0.1-0.1c-0.2-0.2-0.4-0.3-0.7-0.5s-0.5-0.4-0.7-0.6v-0.1s-0.1 0-0.1-0.1c-0.2-0.3-0.3-0.6-0.4-0.9-0.3-1.3 0-2.5 0.6-3.4 0.2-0.3 0.5-0.6 0.8-0.8v-0.1h0.1c0.1 0 0.1-0.1 0.1-0.1h0.1s0-0.1 0.1-0.1 0.1 0 0.2-0.1l0.1-0.1h0.1c0.2-0.1 0.3-0.1 0.4-0.1s0.2-0.1 0.4-0.1h0.1c-0.4 0.2-0.2 0.3-0.2 0.2z"/>
<path class="st1" d="m44.2 21.2v9.8c-1.3 0.3-2.9 0.7-4.6 0.7h-1.7-0.1-0.2c-0.4-0.1-1-0.1-1.5-0.3h-0.1s-0.2-0.1-0.4-0.1h-0.1c-0.1 0-0.2-0.1-0.3-0.1-0.2-0.1-0.5-0.2-0.8-0.4h-0.1l-0.1-0.1s-0.1 0-0.1-0.1l-0.1-0.1c-0.1-0.1-0.2-0.1-0.3-0.2s-0.2-0.1-0.2-0.2l-0.2-0.2-0.1-0.1-0.1-0.1v-0.1s-0.1 0-0.1-0.1c-0.1-0.2-0.2-0.4-0.3-0.7 0-0.1-0.1 0-0.1 0-0.9 0.8-2.3 1.3-3.7 1.2-0.7 0-1.4-0.2-2-0.5h-0.1l-0.1-0.1h-0.1l-0.1-0.1s-0.1 0-0.1-0.1c-0.1-0.1-0.2-0.1-0.3-0.2l-0.3-0.3s-0.1 0-0.1-0.1v-0.1s-0.1 0-0.1-0.1l-0.1-0.1v-0.1h-0.1v-0.1s0-0.1-0.1-0.1c0 0-0.1-0.2-0.1-0.3-0.1-0.2-0.1-0.5-0.1-0.8-2.5 0.1-4.9-0.1-4.8-2.7-1.1 0.2-2.4 0.1-3.3-0.3-0.1-0.1-0.3-0.1-0.4-0.2 0 0 0-0.1-0.1-0.1h-0.1l-0.1-0.1s0-0.1-0.1-0.1h-0.1-0.1l-0.1-0.1c-0.1 0-0.2-0.2-0.3-0.3 0-0.1-0.1-0.1-0.1-0.1s0-0.1-0.1-0.1c0 0-0.1 0-0.1-0.1l-0.1-0.1c-0.3-0.4-0.6-1.1-0.6-1.7 4.4-0.1 8.7 0 12.9-0.3h0.2c0.7 0 1.4-0.1 2.1-0.2h0.4 0.1c0.2 0 0.5-0.1 0.7-0.1 0.7-0.1 1.5-0.3 2.2-0.4 0.9-0.2 1.7-0.5 2.5-0.8l1.5-0.6c0.1 0 0.2-0.1 0.3-0.1h0.2s0.2-0.1 0.4-0.1c0.9-0.1 2.2 0 2.8 0.3 0 0 0 0.1 0.1 0.1 0 0 0.1 0 0.1 0.1 0.1 0.1 0.1 0.2 0.2 0.3 0 0 0.1 0 0.1 0.1v0.1l0.1 0.1v0.1l0.1 0.1v0.1c0.1 0.1 0.2 0.4 0.2 0.5v0.1l0.1 0.1c0 0.1 0 0.2 0.1 0.3v0.1c0 0.1 0.1 0.1 0.1 0.2 0 0 0.1 0 0.1 0.1v0.1l0.1 0.1c0.1 0.1 0.1 0.1 0.1 0.2h0.1l0.1 0.1h0.1l0.1 0.1h0.1 0.1c0.4-0.4 0.8-0.4 1.2-0.5z"/>
<path class="st1" d="m78.5 20.5v0.1c-0.1 0-0.1 0.2-0.1 0.3v0.1c0 0.1-0.1 0.3-0.1 0.4v0.1l-0.1 0.1c0 0.1 0 0.1-0.1 0.2 0 0.1-0.1 0.1-0.1 0.2-0.1 0.1-0.1 0.3-0.2 0.3v0.1l-0.1 0.1s-0.1 0-0.1 0.1v0.1l-0.1 0.1-0.1 0.1c-0.3 0.1-0.4 0.1-0.5 0.2-0.1 0-0.1 0.1-0.1 0.1h-0.1v0.1h-0.1s0 0.1-0.1 0.1h-0.1s0 0.1-0.1 0.1h-0.1c-0.1 0-0.1 0.1-0.1 0.1h-0.1l-0.1 0.1h-0.1c-0.1 0-0.1 0.1-0.2 0.1s-0.3 0.1-0.3 0.1h-0.1c-0.1 0-0.3 0.1-0.4 0.1-0.7 0.1-1.4 0-2.1-0.2 0.1 2.6-2.2 3.1-4.6 2.7 0 0.1-0.1 0.3-0.1 0.4v0.1c0 0.1 0 0.2-0.1 0.3 0 0.1-0.1 0.1-0.1 0.1 0 0.1-0.1 0.1-0.1 0.1v0.1h-0.1v0.1l-0.1 0.1c-0.2 0.3-0.5 0.6-0.8 0.8-0.1 0.1-0.2 0.1-0.3 0.2-0.1 0-0.1 0.1-0.1 0.1h-0.1c-0.1 0-0.1 0.1-0.2 0.1-0.1 0.1-0.3 0.1-0.3 0.1h-0.1c-0.2 0.1-0.3 0.1-0.4 0.1-1.7 0.5-3.7 0-4.6-1 0 0-0.1-0.1-0.1 0-0.1 0.1-0.1 0.3-0.2 0.3v0.1s-0.1 0-0.1 0.1l-0.1 0.1v0.1s-0.1 0-0.1 0.1-0.1 0.1-0.1 0.1l-0.2 0.2c-0.1 0.2-0.3 0.3-0.5 0.5l-0.1 0.1h-0.1v0.1h-0.1-0.1s0 0.1-0.1 0.1c-0.8 0.5-1.9 0.8-3 0.9h-0.4-0.3-0.1-0.5-0.7-0.7c-0.3 0-0.8-0.1-1-0.1h-0.1c-0.2 0-0.4-0.1-0.5-0.1h-0.1c-0.3 0-0.6-0.1-0.8-0.1s-0.4-0.1-0.6-0.1h-0.1-0.2c-0.5 0.4-0.5 0.4-0.6 0.4s-0.3-0.1-0.4-0.1c0-3.2 0.1-6.4 0-9.6 0.4 0.1 0.9 0.1 1.2 0h0.1 0.1 0.1 0.1 0.1l0.1-0.1 0.1-0.1c0.1-0.1 0.2-0.1 0.2-0.2 0 0 0-0.1 0.1-0.1v-0.1s0.1 0 0.1-0.1c0.2-0.4 0.3-0.8 0.5-1.1 0.2-0.4 0.4-0.8 0.7-1h0.1s0-0.1 0.1-0.1 0.2 0 0.2-0.1h0.1c0.1 0 0.4-0.1 0.4-0.1h0.1c0.8-0.1 1.7-0.1 2.4 0 0.6 0.1 1.2 0.3 1.7 0.5 0.1 0 0.1 0.1 0.2 0.1s0.2 0 0.3 0.1h0.1c0.1 0.1 0.3 0.1 0.4 0.1s0.2 0.1 0.3 0.1h0.1 0.1l0.1 0.1h0.2 0.1 0.2c0.4 0.1 0.8 0.3 1.2 0.4 0.2 0 0.5 0.1 0.6 0.1h0.1 0.1 0.1 0.2 0.1 0.1 0.1c0.2 0 0.5 0.1 0.7 0.1h0.2c0.4 0.1 1.1 0.1 1.5 0.2h0.1 0.4 0.4 0.2c0.7 0.1 1.5 0.1 2.2 0.1 1.8 0.1 3.6 0.1 5.4 0.1 1.9 0.2 3.7 0.3 5.5 0.3z"/>
<path class="st1" d="m35.1 37c-0.1 0-0.1 0.2-0.1 0.3v0.1 0.1 0.1 0.8 0.1c0.1 0 0.1 0.2 0.1 0.3s0.1 0.1 0.1 0.1v0.1h0.1v0.1l0.4 0.4c0.1 0.1 0.1 0.1 0.2 0.1l0.1 0.1 0.1 0.1 0.1 0.1h0.1l0.1 0.1h0.1s0.2 0.1 0.3 0.1 0.1 0.1 0.2 0.1 0.1 0.1 0.2 0.1 0.1 0.1 0.2 0.1 0.1 0.1 0.2 0.1 0.3 0.1 0.5 0.1h0.1c0.1 0.1 0.6 0.2 0.8 0.2h0.1c0.1 0.1 0.4 0.1 0.6 0.1 0.3 0.1 0.8 0.2 1.2 0.3 0.6 0.1 1.2 0.2 1.7 0.4 0 0.1-0.2 0.1-0.2 0.1-0.1 0-0.1 0-0.2 0.1h-0.1-0.1-0.1c-0.1 0.1-0.3 0.1-0.4 0.1h-0.1l-0.1 0.1c-0.1 0-0.2 0-0.2 0.1-0.1 0.1-0.3 0.1-0.4 0.2h-0.1l-0.1 0.1c-0.1 0-0.2 0-0.2 0.1l-0.1 0.1h-0.1c-0.1 0-0.1 0.1-0.2 0.1h-0.1l-0.1 0.1c-0.1 0-0.1 0-0.2 0.1l-0.1 0.1c-0.1 0-0.1 0.1-0.2 0.1h-0.1l-0.1 0.1h-0.1s0 0.1-0.1 0.1-0.1 0.1-0.2 0.1l-0.1 0.1h-0.1c-0.1 0-0.1 0.1-0.1 0.1l-0.3 0.3c-0.1 0-0.1 0.1-0.1 0.1-0.1 0-0.1 0.1-0.2 0.1l-0.1 0.1-0.3 0.3c-0.1 0.1-0.2 0.2-0.3 0.2-0.1-0.1-0.2-0.1-0.3-0.1-0.1-0.1-0.2-0.1-0.4-0.2h-0.1-0.1-0.1-0.1s0-0.1-0.1-0.1h-0.1c-0.1 0-0.1-0.1-0.1-0.1-0.1 0-0.2-0.1-0.3-0.2h-0.1s-0.1 0-0.1-0.1h-0.1-0.1-0.1l-0.1-0.1h-0.1v-0.1h-0.1-0.1l-0.1-0.1s-0.1 0-0.1-0.1c0 0-0.1 0-0.1-0.1h-0.1c-0.1-0.1-0.1-0.1-0.3-0.2 0 0 0-0.1-0.1-0.1h-0.1l-0.1-0.1s-0.1 0-0.1-0.1l-0.2-0.2h-0.1s-0.1-0.1-0.1-0.2c0 0-0.1 0-0.1-0.1 0 0 0-0.1-0.1-0.1-0.1-0.1-0.3-0.2-0.4-0.4v-0.1s-0.1-0.1-0.2-0.1c0 0 0-0.1-0.1-0.1h-0.1v-0.1l-0.1-0.1c-0.1-0.2-0.3-0.5-0.4-0.7v-0.1c0-0.1-0.1-0.2-0.1-0.3-0.1-0.3-0.2-0.6-0.3-1v-0.3-1.5c0-0.2 0.1-0.4 0.1-0.5s0-0.2 0.1-0.3v-0.2l0.1-0.1c0-0.1 0-0.1 0.1-0.2 0.1-0.2 0.3-0.5 0.4-0.7 0-0.1 0.1-0.1 0.1-0.2s0.1-0.1 0.1-0.1c0-0.1 0.1-0.1 0.1-0.1v-0.1c0-0.1 0.1-0.1 0.2-0.2s0.2-0.2 0.4-0.3c0.3-0.2 0.7-0.4 1.2-0.6h0.1c0.1 0 0.2-0.1 0.3-0.1s0.1-0.1 0.2-0.1 0.1 0 0.2-0.1h0.1 0.2c0.1 0 0.2 0 0.4-0.1h0.1 0.1 0.1 0.1 0.1 0.2 0.1s0.3-0.1 0.4-0.1c0.3 0 0.5-0.1 0.8-0.1h0.1c1.8-0.1 3.5 0.2 4.6 0.9l0.1 0.1c0.1 0 0.1 0.1 0.1 0.1 0.1 0.1 0.2 0.1 0.2 0.1 0.1 0.1 0.1 0.2 0.2 0.3l0.1 0.1v0.1s0.1 0 0.1 0.1v0.1s0.1 0 0.1 0.1v0.1l0.1 0.1 0.1 0.1v0.1c0.1 0.1 0.2 0.3 0.3 0.5 0 0.1 0.1 0.2 0.1 0.3v0.1c0.1 0 0.1 0.3 0.1 0.4 0.1 0.3 0.1 0.8 0 1.1 0 0.1-0.1 0.2-0.1 0.3v0.1l-0.1 0.1s-0.1 0.2-0.2 0.2h-0.1v0.1h-0.1v0.1h-0.1-0.1c-0.1 0-0.2 0-0.3 0.1 0 0-0.1 0.1-0.2 0.1h-0.3c-0.1 0-0.4 0.1-0.5 0.1-0.8 0.1-1.6 0-2.2-0.2-0.1 0-0.2 0-0.2-0.1-0.1 0-0.1-0.1-0.1-0.1h-0.1c-0.1 0-0.1 0-0.1-0.1l-0.1-0.1c-0.7-0.6-0.8-0.7-0.8-0.7l-0.2-0.2c-0.1-0.1-0.3-0.3-0.5-0.4l-0.1-0.1h-0.1c-0.1-0.1-0.2-0.1-0.3-0.2h-0.1c-0.1-0.1-0.6 0-0.8 0-0.3-0.1-0.5-0.1-0.8-0.1z"/>
<path class="st1" d="m44.6 53.2c0 0.1-0.1 0-0.1 0.1h-0.1-0.1s-0.2 0.1-0.3 0.1h-0.1s-0.2 0.1-0.3 0.1h-0.1s-0.2 0.1-0.3 0.1h-0.1s-0.2 0.1-0.3 0.1h-0.1c-0.1 0.1-0.3 0.2-0.5 0.3-0.1 0.1-0.3 0.1-0.5 0.2-0.9 0.4-1.7 0.9-2.4 1.4-0.1 0-0.2-0.1-0.3-0.2h-0.1v-0.1h-0.1l-0.1-0.1c-0.1 0-0.2-0.1-0.2-0.1h-0.1l-0.1-0.1h-0.1-0.1v-0.1c-0.1 0-0.1 0-0.1-0.1 0 0 0-0.1-0.1-0.1h-0.1s0-0.1-0.1-0.1h-0.1s0-0.1-0.1-0.1h-0.1s0-0.1-0.1-0.1h-0.1l-0.3-0.3-0.3-0.3c-0.1-0.1-0.1-0.1-0.2-0.3l-0.1-0.1v-0.1l-0.1-0.1v-0.1l-0.1-0.1v-0.1c0-0.1-0.1-0.1-0.1-0.3 0-0.1-0.1-0.2-0.1-0.3-0.3-0.8-0.4-1.6-0.3-2.7 0.1-0.5 0.2-0.9 0.3-1.3 0 0 0.1-0.1 0.1-0.2s0.1-0.2 0.1-0.3 0-0.1 0.1-0.2c0-0.1 0.1-0.3 0.2-0.4 0 0 0-0.1 0.1-0.1v-0.1l0.1-0.1 0.1-0.1v-0.1s0.1 0 0.1-0.1v-0.1-0.1h0.1s0-0.1 0.1-0.1c0.1-0.1 0.1-0.2 0.2-0.3 0 0 0.1-0.1 0.1-0.2 0.1-0.1 0.2-0.3 0.4-0.4l0.5-0.5c0.1 0 0.1-0.1 0.1-0.1h0.1l0.1-0.1h0.1v-0.1h0.1s0-0.1 0.1-0.1h0.1l0.1-0.1h0.1v-0.1c0.1 0 0.1 0 0.1-0.1 0 0 0.1 0 0.1-0.1l0.1-0.1h0.1s0-0.1 0.1-0.1h0.1l0.1-0.1c0.3-0.2 0.6-0.3 0.9-0.4h0.1 0.1 0.1l0.1-0.1h0.1c0.1 0 0.1 0 0.2-0.1 0.2 0 0.3-0.1 0.5-0.2 0.1 0 0.1-0.1 0.2-0.1 0.4-0.1 0.8-0.2 1.3-0.3 0.2 0 0.4 0 0.6-0.1h0.2 0.3c0.2 0 0.6 0 0.8-0.1h0.1c0.7-0.1 1.6-0.1 2.4-0.2h0.1c0.3-0.1 0.8-0.1 1.2-0.1 1.1-0.1 2.2-0.3 3.2-0.6 0.8-0.2 1.5-0.4 2.3-0.6 0 0 0.1-0.1 0.2-0.1h0.1 0.1 0.1 0.1c0.2-0.1 0.3-0.1 0.5-0.2h0.1l0.1-0.1c0.1 0 0.2 0 0.2-0.1 0 0 0-0.1 0.1-0.1h0.1s0-0.1 0.1-0.1 0.2-0.1 0.3-0.1l0.1-0.1 0.4-0.4c0.1-0.1 0.1-0.1 0.1-0.2 0 0 0-0.1 0.1-0.1 0 0 0-0.1 0.1-0.2v-0.1-0.2c0-0.3 0-0.7-0.1-1 0-0.1-0.2-0.1-0.3-0.2h-0.1c-0.7-0.2-1.3 0.1-1.7 0.4 0 0 0 0.1-0.1 0.1h-0.1s-0.1 0-0.1 0.1v0.1h-0.1s-0.1 0.1-0.2 0.1h-0.1v0.1c-0.1 0-0.1 0.1-0.2 0.1 0 0 0 0.1-0.1 0.1s-0.2 0.1-0.3 0.1l-0.1 0.1h-0.1c-0.1 0-0.1 0-0.2 0.1l-0.1 0.1h-0.1c0 0.1-0.2 0.1-0.3 0.1h-0.3c-0.2 0-0.5 0.1-0.7 0.1h-0.2c-0.2 0-0.3 0.1-0.5 0h-0.5c-0.4 0-0.8-0.1-1.2-0.3-0.1 0-0.2-0.1-0.3-0.1l-0.1-0.1s-0.2-0.2-0.3-0.2c-0.2-0.2-0.3-0.5-0.4-0.9v-0.1-0.1-0.3c0-0.2 0.1-0.4 0.1-0.5 0 0 0.1-0.1 0.1-0.2s0-0.1 0.1-0.2v-0.1-0.1l0.1-0.1v-0.1l0.1-0.1v-0.1l0.1-0.1 0.1-0.1v-0.1h0.1s0-0.1 0.1-0.1h0.1s0-0.1 0.1-0.1l0.5-0.5v-0.1s0.1 0 0.1-0.1c0.1 0 0.1-0.1 0.2-0.1 0.6-0.4 1.2-0.6 2-0.7h0.4c0.4 0 1-0.1 1.5 0h0.6 0.5c0.2 0 0.4 0.1 0.7 0.1h0.1 0.3c0.1 0 0.3 0.1 0.5 0.1s0.3 0.1 0.5 0.1c0.1 0 0.1 0.1 0.2 0.1h0.1 0.1c0.1 0 0.2 0 0.3 0.1 0.1 0 0.1 0.1 0.2 0.1h0.1l0.1 0.1c0.1 0 0.2 0 0.3 0.1h0.1 0.1l0.1 0.1 0.1 0.1h0.1 0.1v0.1h0.1l0.1 0.1h0.1 0.1c0.1 0 0.1 0.1 0.1 0.1s0.1 0 0.1 0.1c0.1 0 0.1 0.1 0.2 0.1l0.1 0.1 0.3 0.3v0.1h0.1v0.1h0.1v0.1l0.1 0.1c0.1 0.1 0.1 0.2 0.1 0.4v0.1l0.1 0.1v0.1 0.3c0 0.2 0.1 0.5 0.1 0.7 0.1 0.9-0.1 1.6-0.3 2.2v0.2s0 0.1-0.1 0.2l-0.1 0.1v0.1l-0.1 0.1v0.1l-0.1 0.1v0.1 0.1 0.1s-0.1 0.1-0.1 0.2c0 0-0.1 0-0.1 0.1v0.1l-0.1 0.1-0.1 0.1v0.1s-0.1 0-0.1 0.1v0.1s-0.1 0-0.1 0.1l-0.1 0.1-0.4 0.4c-0.1 0.1-0.1 0.2-0.2 0.3h-0.1l-0.2 0.2-0.1 0.1h-0.1s-0.1 0.2-0.2 0.2h-0.1v0.1h-0.1v0.1h-0.1v0.1h-0.1v0.1h-0.1v0.1h-0.1v0.1h-0.1l-0.1 0.1c-0.4 0.3-0.8 0.5-1.2 0.8-0.1 0-0.1 0-0.2 0.1l-0.1 0.1h-0.1s-0.1 0.1-0.2 0.1h-0.1s0 0.1-0.1 0.1h-0.1s-0.1 0.1-0.2 0.1-0.2 0.1-0.2 0.1h-0.1c-0.4 0.2-0.8 0.3-1.2 0.5h-0.1-0.1c-0.1 0.1-0.2 0.1-0.3 0.1s-0.1 0-0.2 0.1c-0.1 0-0.2 0-0.3 0.1h-0.2c-0.1 0.1-0.4 0.1-0.5 0.1-0.4 0.1-1 0.2-1.5 0.3-1.7 0.3-3.6 0.3-5.4 0.6h-0.4-0.1-0.1-0.1-0.1c-0.1 0-0.3 0.1-0.5 0.1-0.3 0.1-0.5 0.1-0.8 0.2-0.1 0-0.1 0.1-0.2 0.1h-0.2c-0.2 0-0.5 0.2-0.7 0.3h-0.1v0.1c-0.1 0-0.1 0-0.2 0.1 0 0 0 0.1-0.1 0.1h-0.1s0 0.1-0.1 0.1l-0.3 0.3c-0.3 0.4-0.5 1.1-0.4 1.7v0.3 0.1c0.1 0 0.1 0.3 0.2 0.4 0 0 0 0.1 0.1 0.1 0 0.1 0.1 0.1 0.1 0.2 0.1 0.1 0.1 0.2 0.2 0.3 0 0.1 0.1 0.1 0.1 0.1l0.3 0.3c0.1 0.1 0.1 0.1 0.2 0.1s0.1 0.1 0.1 0.1c1.2 0.3 1.8 0.6 2.3 0.8z"/>
<path class="st1" d="m55.9 46.4c0 0.1 0.2 0 0.2 0.1s0.1 0.2 0.1 0.3l0.3 0.6v0.1 0.1 0.1 0.1c0.1 0.1 0.1 0.4 0.2 0.5 0 0.1 0.1 0.2 0.1 0.4 0.1 0.3 0.2 0.8 0.2 1.1v0.3 0.6 0.1 0.3 0.1 0.3c-0.1 0.4-0.2 0.7-0.3 1 0 0.1 0 0.1-0.1 0.2v0.1s-0.1 0-0.1 0.1c0 0-0.1 0.1-0.1 0.2l-0.1 0.1s0 0.1-0.1 0.1l-0.1 0.1c-0.1 0.1-0.2 0.3-0.4 0.4-0.1 0.2-0.3 0.3-0.4 0.5h-0.1s-0.1 0.1-0.1 0.2h-0.1l-0.3 0.3-0.1 0.1-0.1 0.1-0.1 0.1-0.1 0.1h-0.1l-0.1 0.1h-0.1c0 0.1-0.1 0.1-0.1 0.1-0.1 0-0.1 0.1-0.2 0.1 0 0-0.1 0-0.1 0.1-0.1 0-0.1 0.1-0.1 0.1h-0.1s-0.2 0.1-0.3 0.1l-0.1 0.1h-0.1-0.1-0.1s-0.2 0.1-0.3 0.2c-0.2 0.1-0.5 0.2-0.8 0.4h-0.1c-0.2 0.1-0.4 0.2-0.7 0.3-0.1 0-0.3 0.1-0.5 0.2-0.1 0-0.2 0-0.3 0.1h-0.2s-0.2 0.1-0.3 0.1h-0.1s-0.1 0-0.2 0.1c-0.1 0-0.3 0.1-0.4 0.1h-0.1s-0.2 0.1-0.3 0.1h-0.1c0 0.1-0.2 0.1-0.4 0.1h-0.1c-0.1 0-0.1 0.1-0.2 0.1s-0.1 0-0.2 0.1h-0.1s-0.2 0.1-0.3 0.1h-0.1s-0.2 0.1-0.3 0.1h-0.1-0.2-0.1c-0.1 0-0.2 0.1-0.3 0.1s-0.2 0.1-0.3 0.1h-0.1-0.1-0.2l-0.1 0.1h-0.1-0.1-0.1-0.1-0.1-0.1-0.1c0 0.1-0.2 0.1-0.3 0.2l-0.1 0.1h-0.1-0.1c-0.1 0.1-0.4 0.3-0.5 0.4s-0.2 0.2-0.2 0.3l-0.1 0.1s-0.1 0-0.1 0.1v0.1 0.1c-0.1 0.1-0.1 0.3-0.1 0.4 0 0.2-0.1 0.3-0.1 0.5 0 0.4 0.2 0.8 0.4 1.1 0.4 0.6 1.1 1 1.7 1.3-0.1 0.1-0.3 0.1-0.5 0.2-0.1 0-0.2 0.1-0.3 0.1h-0.1-0.1c-0.2 0.1-0.3 0.1-0.5 0.2 0 0-0.1 0-0.2 0.1h-0.1l-0.1 0.1h-0.1-0.1-0.1l-0.1 0.1h-0.1c-0.1 0-0.2 0.1-0.3 0.1l-0.9 0.6c-0.1 0-0.1 0.1-0.1 0.1h-0.1c0 0.1-0.1 0.2-0.2 0.3s-0.1 0.1-0.2 0.1c0-0.1-0.1 0-0.1-0.1h-0.1-0.1s-0.1-0.1-0.2-0.1-0.1-0.1-0.2-0.1h-0.1l-0.1-0.1h-0.1v-0.1s-0.1 0-0.1-0.1l-0.1-0.1h-0.1l-0.3-0.3c-0.1-0.1-0.1-0.2-0.2-0.3 0 0-0.2-0.1-0.2-0.2l-0.1-0.1v-0.1l-0.1-0.1v-0.1l-0.1-0.1s0-0.1-0.1-0.2c0-0.1-0.1-0.2-0.1-0.3v-0.1-0.1-0.1-0.1c-0.1-0.1-0.1-0.4-0.2-0.5v-0.2c0-0.2-0.1-0.3-0.1-0.5-0.1-0.8 0-1.5 0.3-2.2v-0.1s0.1-0.2 0.1-0.3v-0.1-0.1h0.1v-0.1l0.1-0.1c0.2-0.3 0.4-0.5 0.6-0.8l0.2-0.2c0.1-0.1 0.1-0.1 0.1-0.2 0.1-0.1 0.2-0.2 0.4-0.3l0.2-0.2c0.2-0.1 0.4-0.3 0.6-0.4l0.1-0.1 0.1-0.1h0.1l0.1-0.1h0.1 0.1v-0.1h0.1l0.1-0.1c0.1-0.1 0.3-0.2 0.4-0.3h0.1l0.1-0.1h0.1l0.1-0.1c0.1 0 0.1-0.1 0.2-0.1 0.4-0.2 0.9-0.4 1.4-0.6h0.1l0.1-0.1h0.1c0.1 0 0.2-0.1 0.4-0.1 0.1 0 0.2 0 0.3-0.1 0.1 0 0.1-0.1 0.2-0.1h0.1c0.7-0.3 1.7-0.5 2.5-0.8 0.1 0 0.2-0.1 0.4-0.1 0.1 0 0.1 0 0.2-0.1h0.1c0.1 0 0.3-0.1 0.4-0.2h0.1 0.1l0.1-0.1h0.1 0.1l0.1-0.1h0.1s0-0.1 0.1-0.1h0.1 0.1s0-0.1 0.1-0.1h0.1l0.1-0.1c0.1 0 0.1-0.1 0.2-0.1l0.3-0.3c0-0.1 0.1-0.1 0.1-0.2l0.1-0.1c0-0.1 0.1-0.1 0.1-0.2l0.1-0.1v-0.1s0-0.1 0.1-0.2v-0.1c0-0.1 0-0.3 0.1-0.4 0.1-0.3 0.1-0.9 0-1.2v-0.1s0-0.1-0.1-0.2-0.2-0.3-0.2-0.3c-0.3-0.3-0.5-0.5-1-0.7 0.1-0.1 0.2 0 0.3-0.1h0.1 0.4 0.2 0.2c0.2 0 0.4-0.1 0.7-0.1h0.1c0-0.1 0.3 0 0.4-0.1h0.1 0.2 0.1 0.3 0.1 0.1 0.1c0-0.1 0.3-0.1 0.4-0.1 0.2 0 0.4-0.1 0.6-0.2h0.1s0.1 0 0.2-0.1c0.1 0 0.1 0 0.2-0.1h0.1 0.2l0.1-0.1h0.1c0.1 0 0.1-0.1 0.1-0.1 0.1 0 0.1-0.1 0.1-0.1h0.1l0.1-0.1c0.3-0.1 0.3-0.1 0.4-0.1z"/>
<path class="st1" d="m47.8 48c-0.1 1.4-0.2 2.8-0.1 4.2-0.1 0.1-0.2 0.1-0.3 0.1h-0.1c-0.1 0-0.2 0.1-0.3 0.1h-0.1-0.1s-0.1 0-0.2 0.1c-0.4 0.1-0.8 0.4-1.3 0.4-0.2-1.4 0-3.3-0.1-4.8 0.8 0.1 1.6-0.1 2.6-0.1z"/>
<path class="st1" d="m44.4 71.8c-0.1 0.1-0.3 0.1-0.5 0.2h-0.1l-0.1 0.1h-0.1l-0.1 0.1h-0.1-0.1v0.1h-0.1l-0.1 0.1c-0.1 0-0.2 0.1-0.2 0.1h-0.1l-0.1 0.1h-0.1-0.1s0 0.1-0.1 0.1h-0.1l-0.1 0.1c-0.1 0.1-0.3 0.2-0.5 0.4-0.1 0-0.1 0.1-0.2 0.1s-0.2 0.2-0.3 0.2c0-0.1-0.1-0.1-0.2-0.1 0 0 0-0.1-0.1-0.1h-0.1c-0.1 0-0.1-0.1-0.1-0.1-0.2-0.1-0.4-0.3-0.5-0.5 0 0-0.1 0-0.1-0.1v-0.1c-0.1-0.1-0.3-0.5-0.4-0.7 0-0.1-0.1-0.3-0.1-0.4-0.3-1.5 0.3-3 0.8-3.9 0.1-0.1 0.1-0.2 0.2-0.3 0 0 0.1-0.1 0.1-0.2h0.1v-0.1c0-0.1 0.1-0.1 0.2-0.2l0.3-0.3s0.1-0.1 0.2-0.1 0.1-0.1 0.1-0.1c0.1-0.1 0.2-0.1 0.3-0.2l0.1-0.1c0.1 0 0.1-0.1 0.2-0.1s0.1-0.1 0.2-0.1h0.1l0.1-0.1h0.1c0.1 0 0.2 0 0.2-0.1l0.1-0.1c0.1 0 0.1 0 0.2-0.1h0.1l0.1-0.1h0.1 0.1s0.1 0 0.1-0.1c0.4-0.2 1-0.3 1.5-0.5 0.6-0.2 1.2-0.3 1.7-0.5 0.9-0.3 1.9-0.8 2.6-1.4l0.3-0.3v-0.1l0.1-0.1v-0.1l0.1-0.1v-0.1l0.1-0.1v-0.1l0.1-0.1c0.1-0.6-0.1-1.1-0.4-1.4s-0.6-0.5-1.1-0.8h-0.1s-0.2-0.1-0.3-0.1h-0.1c0-0.1-0.1-0.1-0.1-0.1s-0.1 0-0.1-0.1c0 0-0.1-0.1-0.2-0.1-0.2 1-0.1 2.3-0.1 3.3l-0.1 0.1h-0.1l-0.1 0.1c-0.1 0-0.1 0.1-0.2 0.1s-0.1 0.1-0.1 0.1c-0.1 0-0.2 0.1-0.3 0.1h-0.1c-0.1 0-0.2 0-0.3 0.1h-0.2s-0.2 0.1-0.4 0.1c-0.2 0.1-0.4 0.2-0.7 0.2v-3.9c0.2-0.1 0.3-0.1 0.5-0.2h0.1l0.1-0.1h0.1 0.1c0.1 0 0.2-0.1 0.4-0.1h0.1c0.1 0 0.2-0.1 0.4-0.1 0.2-0.1 0.3-0.1 0.5-0.1 0.1 0 0.1-0.1 0.2-0.1s0.1-0.1 0.2-0.1h0.2 0.1 0.2 0.1 0.3 0.1s0.2-0.1 0.3-0.1c0.2 0 0.3-0.1 0.5-0.1 0.3-0.1 0.6-0.2 0.9-0.3 0.1 0 0.2 0 0.3-0.1 0.1 0 0.1 0 0.2-0.1 0.1 0 0.2 0 0.3-0.1l0.1-0.1h0.1c0.1 0 0.2 0 0.3-0.1l0.1-0.1h0.1 0.1l0.1-0.1c0.1 0 0.2-0.1 0.3-0.1h0.1 0.1 0.1l0.1 0.1 0.1 0.1 0.6 0.6 0.1 0.1v0.1c0.1 0 0.1 0.1 0.1 0.2s0.1 0.1 0.1 0.1v0.1 0.1c0.1 0 0.1 0.1 0.1 0.1v0.1 0.1 0.2s0 0.1 0.1 0.2c0 0 0.1 0.2 0.1 0.3v0.1 0.2c0.1 0.4 0.2 1 0.2 1.6s-0.1 1.2-0.3 1.7v0.1c0 0.1 0 0.2-0.1 0.3 0 0.1-0.1 0.1-0.1 0.1 0 0.1-0.1 0.2-0.1 0.3v0.1 0.1c0 0.1-0.1 0.1-0.1 0.2 0 0-0.1 0-0.1 0.1v0.1l-0.1 0.1s0 0.1-0.1 0.1l-0.1 0.1-0.3 0.3-0.1 0.1c-0.1 0-0.2 0.2-0.3 0.3h-0.1l-0.1 0.1v0.1h-0.1l-0.1 0.1-0.1 0.1h-0.1v0.1h-0.1l-0.1 0.1h-0.1-0.1c-0.1 0-0.2 0.1-0.3 0.1s-0.1 0.1-0.1 0.1c-0.1 0-0.2 0.1-0.3 0.1s-0.1 0-0.2 0.1c0 0-0.1 0-0.2 0.1-0.8 0.3-1.9 0.6-2.8 0.9-0.6 0.2-1.3 0.4-1.9 0.6-0.1 0-0.2 0.1-0.3 0.1h-0.1c-0.1 0-0.1 0-0.2 0.1-0.1 0-0.1 0.1-0.1 0.1-0.1 0-0.1 0.1-0.1 0.1s-0.1 0-0.1 0.1c-0.3 0.2-0.5 0.3-0.7 0.5l-0.1 0.1-0.1 0.1c0 0.1-0.1 0.1-0.1 0.1v0.1c-0.1 0.2-0.1 0.4-0.1 0.7 0 0.4 0.2 0.6 0.4 0.9 0.1 0.3 0.2 0.3 0.2 0.5v0z"/>
<path class="st1" d="m52 67.3c0.1 0.1 0.1 0.2 0.1 0.3l0.1 0.1v0.1c0.1 0.1 0.1 0.3 0.1 0.4v0.1 0.1 0.1c0.1 0.2 0.2 0.5 0.2 0.8v0.2c0.1 0.7 0 1.7-0.2 2.3 0 0.1 0 0.1-0.1 0.2 0 0 0 0.1-0.1 0.2 0 0.1-0.1 0.2-0.1 0.3l-0.1 0.1c0 0.1-0.1 0.1-0.1 0.2v0.1 0.1h-0.1v0.1s-0.1 0-0.1 0.1v0.1h-0.1v0.1c0 0.1-0.1 0.1-0.2 0.1l-0.3 0.3s0 0.1-0.1 0.1h-0.1s0 0.1-0.1 0.1h-0.1v0.1c-0.1 0-0.1 0-0.1 0.1h-0.1l-0.1 0.1h-0.1l-0.1 0.1c-0.1 0-0.1 0.1-0.2 0.1 0 0-0.1 0-0.1 0.1l-0.1 0.1h-0.1l-0.1 0.1h-0.1c-0.1 0-0.1 0-0.2 0.1 0 0-0.1 0-0.1 0.1h-0.1l-0.1 0.1c-0.1 0-0.2 0-0.3 0.1h-0.2s-0.1 0.1-0.2 0.1c-0.1 0.1-0.3 0.1-0.4 0.1s-0.1 0-0.3 0.1c-0.1 0-0.4 0.1-0.5 0.2-0.8 0.2-1.7 0.5-2.4 0.8 0 0.3-0.1 0.7-0.1 1 0 0.7 0.1 1.5-0.2 2-0.1 0.1-0.1 0.2-0.3 0.3v0.2c-0.1 0-0.1 0-0.2 0.1h-0.1-0.3-0.1l-0.1-0.1c-0.2-0.1-0.3-0.1-0.4-0.2l-0.1-0.1c-0.1 0-0.1-0.1-0.2-0.1 0 0 0-0.1-0.1-0.1h-0.1l-0.3-0.3v-0.2c-0.1-0.1-0.1-0.2-0.2-0.3l-0.1-0.1v-0.1c-0.1 0-0.1-0.1-0.1-0.1 0-0.1-0.1-0.1-0.1-0.1 0-0.1-0.1-0.1-0.1-0.1 0-0.1-0.1-0.1-0.1-0.1 0-0.1-0.1-0.2-0.1-0.3v-0.1-0.2c0-0.1 0-0.2-0.1-0.4v-0.1-0.1-0.8-0.1-0.3-0.1s0.1-0.1 0.1-0.2 0-0.1 0.1-0.2c0 0 0-0.1 0.1-0.1v-0.1s0.1 0 0.1-0.1v-0.1s0.1 0 0.1-0.1v-0.1c0.1-0.1 0.2-0.2 0.4-0.3 0.1-0.1 0.2-0.2 0.4-0.3 0.1 0 0.2-0.1 0.2-0.1h0.1l0.1-0.1h0.1l0.1-0.1h0.1l0.1-0.1h0.1v-0.1h0.1 0.1l0.1-0.1h0.1s0-0.1 0.1-0.1c0.1-0.1 0.2-0.1 0.3-0.1h0.1v-0.1h0.1l0.1-0.1h0.1c0.1 0 0.1 0 0.2-0.1l0.1-0.1s0.1 0 0.1-0.1c0.1 0 0.2-0.1 0.3-0.1 0 0 0.1 0 0.2-0.1h0.1l0.1-0.1c0.1 0 0.2 0 0.3-0.1 0 0 0.1 0 0.2-0.1h0.1l0.1-0.1c0.1 0 0.2 0 0.3-0.1 0 0 0.1 0 0.1-0.1h0.1l0.1-0.1h0.1l0.1-0.1h0.1 0.1v-0.1h0.1s0-0.1 0.1-0.1c0.1-0.1 0.1-0.1 0.2-0.1 0.1-0.1 0.2-0.3 0.2-0.5 0-0.1 0-0.3-0.1-0.4v-0.1h-0.1v-0.1c0-0.1-0.1-0.1-0.2-0.2v-0.1h-0.1s0-0.1-0.1-0.1c-0.1 0.1-0.1 0.3-0.1 0.4 0 0.2 0.1 0.3 0 0.5 0 0.1-0.1 0.2-0.3 0.3-0.1 0.1-0.2 0.1-0.3 0.2 0 0 0 0.1-0.1 0.1h-0.1s0 0.1-0.1 0.1h-0.1c-0.1 0-0.2 0.1-0.3 0.1l-0.1 0.1h-0.1c-0.1 0.1-0.2 0.1-0.4 0.2h-0.1-0.1-0.2-0.1-0.1-0.4v-1.7c0.1 0 0.1 0 0.2-0.1h0.1l0.1-0.1c0.1 0 0.2-0.1 0.3-0.1h0.1l0.1-0.1h0.1s0.2-0.1 0.3-0.1 0.2-0.1 0.3-0.1 0.1-0.1 0.2-0.1h0.1l0.1-0.1h0.1 0.1 0.1 0.1s0.1 0 0.1-0.1c0.2-0.1 0.5-0.2 0.8-0.3h0.1 0.1 0.1 0.1 0.1 0.1 0.1 0.1 0.1 0.1 0.1 0.1 0.1 0.1 0.1 0.1 0.1c0.3-0.1 0.6-0.2 0.9-0.3l0.1-0.1h0.2l0.1-0.1h0.1c0.9-1 1.1-1.2 1.3-1.2z"/>
<path class="st1" d="m39.7 84c0-0.1 0.1-0.1 0.1-0.2l0.1-0.1 0.1-0.1v-0.1l0.6-0.6c0.1-0.1 0.2-0.1 0.3-0.2l0.1-0.1 0.1-0.1h0.1l0.1-0.1 0.1-0.1s0.1 0 0.1-0.1l0.1-0.1h0.1s0-0.1 0.1-0.1h0.1l0.1-0.1s0.1 0 0.1-0.1c0.1 0 0.1-0.1 0.1-0.1h0.1l0.1-0.1 0.1-0.1h0.1v-0.1h0.1 0.1c0.1-0.1 0.2-0.1 0.3-0.1h0.1l0.1-0.1h0.1c0.1-0.1 0.1-0.1 0.2-0.1h0.1l0.1-0.1h0.1c0.1-0.1 0.1-0.1 0.2-0.1s0.1-0.1 0.1-0.1c0.1 0 0.1-0.1 0.1-0.1h0.1 0.1 0.1 0.1c0.1-0.1 0.2-0.1 0.3-0.2 0.1 0 0.1-0.1 0.1-0.1l0.1-0.1h0.1 0.1l0.1-0.1 0.1-0.1 0.1-0.1h0.1c0-0.1 0.1-0.1 0.1-0.1l0.1-0.1s0.1 0 0.1-0.1l0.1-0.1h0.1l0.1-0.1 0.1-0.1h0.1l0.3-0.3 0.2-0.2s0.1 0 0.1-0.1v-0.1-0.1-0.1l0.1-0.1v-0.5c-0.1 0-0.2 0.1-0.3 0.2-0.1 0-0.1 0.1-0.1 0.1h-0.1v0.1l-0.3 0.3c-0.1 0-0.1 0.1-0.1 0.1h-0.1v0.1h-0.1l-0.1 0.1c-0.1 0.1-0.2 0.1-0.3 0.2-0.1 0-0.2 0.1-0.3 0.1l-0.1 0.1h-0.1s0 0.1-0.1 0.1h-0.1-0.1c-0.1 0-0.2 0.1-0.3 0.1v-2c0.3 0 0.6-0.1 0.9-0.2 0.1 0 0.2 0 0.4-0.1h0.1s0.2-0.1 0.4-0.1h0.1s0.2-0.1 0.4-0.1h0.1s0.2-0.1 0.4-0.1h0.1s0.1 0 0.3-0.1c0.1 0 0.2 0 0.3-0.1h0.2c0.2-0.1 0.5-0.2 0.8-0.3l0.1-0.1h0.1l0.1-0.1h0.1 0.1s0.1 0 0.1-0.1c0.1 0 0.1 0 0.2-0.1l0.1-0.1h0.1s0-0.1 0.1-0.1h0.1s0.1 0 0.1-0.1c0 0 0-0.1 0.1-0.1h0.1v-0.1h0.1s0-0.1 0.1-0.1c0.1-0.1 0.3-0.2 0.4-0.4l0.1-0.1c0.1 0 0.1 0.1 0.2 0.1l0.1 0.1 0.1 0.1c0 0.1 0.1 0.1 0.1 0.2 0 0 0 0.1 0.1 0.2v0.2 0.9 0.3 0.3 0.2 0.1c0 0.1-0.1 0.2-0.1 0.3s0 0.1-0.1 0.2v0.1 0.1h-0.1s0 0.1-0.1 0.1c0 0.1-0.1 0.1-0.1 0.2 0 0-0.1 0-0.1 0.1v0.1c-0.1 0.2-0.3 0.2-0.4 0.3 0 0 0 0.1-0.1 0.1h-0.1s0 0.1-0.1 0.1h-0.1s0 0.1-0.1 0.1h-0.1c-0.1 0-0.1 0.1-0.2 0.1h-0.1-0.1v0.1h-0.1l-0.1 0.1c-0.6 0.4-1.3 0.7-1.9 1h-0.1-0.1-0.1l-0.1 0.1c-0.1 0-0.2 0-0.3 0.1 0 0-0.2 0.1-0.3 0.1h-0.1c-0.2 0.1-0.3 0.1-0.5 0.2h-0.1l-0.1 0.1c-0.1 0-0.2 0-0.3 0.1-0.1 0-0.1 0-0.2 0.1-0.1 0-0.1 0.1-0.2 0.1s-0.2 0.1-0.3 0.1h-0.1l-0.1 0.1h-0.1s-0.1 0-0.2 0.1h-0.1c-0.1 0-0.2 0.1-0.3 0.1h-0.1-0.1c-0.1 0-0.2 0-0.3 0.1-0.1 0-0.1 0-0.2 0.1-0.2 0.1-0.3 0.1-0.5 0.2-0.1 0-0.1 0-0.2 0.1h-0.1l-0.1 0.1c-0.2 0.1-0.3 0.1-0.5 0.2h-0.1c-0.6 0.9-1.5 1.3-2.3 1.2z"/>
<path class="st1" d="m49.8 80.8c0.1 0 0.1 0.1 0.1 0.1h0.1c0.1 0 0.1 0.1 0.1 0.1h0.1s0 0.1 0.1 0.1c0.2 0.1 0.4 0.2 0.5 0.3l0.1 0.1h0.1l0.1 0.1h0.1c0.1 0 0.1 0.1 0.1 0.1h0.1s0 0.1 0.1 0.1 0.1 0.1 0.2 0.1 0.1 0.1 0.1 0.1h0.1c0.1 0 0.1 0.1 0.2 0.2l0.3 0.3 0.1 0.1 0.1 0.1s0 0.1 0.1 0.1l0.1 0.1v0.1c0 0.1 0.1 0.1 0.1 0.1 0 0.1 0.1 0.2 0.1 0.4h-0.8c-0.2 0-0.3 0-0.5-0.1-0.1 0-0.2 0-0.3-0.1h-0.1s-0.1 0-0.2-0.1c-0.1 0-0.2-0.1-0.3-0.1-1.1-0.3-2-0.8-3.1-1.2v0.4 0.4 0.2 0.3 0.5c0 0.5-0.1 1.2-0.1 1.8 0 0.3-0.1 0.5-0.1 0.8 0 0.2-0.1 0.5-0.1 0.8 0 0.4 0 0.8-0.1 1.1v0.5c-0.1 0.4-0.2 0.8-0.5 1.1-0.3 0-0.5 0-0.6-0.1 0 0-0.2-0.1-0.2-0.2-0.1-0.1-0.1-0.2-0.2-0.4 0-0.1-0.1-0.2-0.1-0.2 0-0.1-0.1-0.2-0.1-0.3v-0.1c-0.1-0.5-0.1-1.2-0.1-1.7-0.1-1.3-0.3-2.8-0.2-4.1 0-0.1 0.1 0 0.1-0.1h0.1 0.1c0.1 0 0.2 0 0.3-0.1 0.1 0 0.2-0.1 0.3-0.1 0 0 0.1 0 0.2-0.1 0.1 0 0.2 0 0.3-0.1 0.1 0 0.2-0.1 0.3-0.1s0.1 0 0.2-0.1c0.1 0 0.2 0 0.3-0.1 0.4-0.2 0.9-0.4 1.3-0.6h0.1 0.1 0.1 0.1c0.1 0 0.1-0.1 0.1-0.1l0.1-0.1c0.1 0 0.1-0.1 0.1-0.1h0.1c0-0.2 0.1-0.2 0.2-0.2-0.1-0.1-0.1 0 0 0z"/>
</svg>
